{"title":"Montauk.Chronicles.2015.BRRip.x264-MenaceIISociety","uid":12193188,"size":1227784068,"categoryP":"video","categoryS":"movies","magnet":"?xt=urn:btih:d6a3cfce7148a0820fbf9ba81305e9be3073b6ba&amp;dn=Montauk.Chronicles.2015.BRRip.x264-MenaceIISociety&amp;tr=udp%3A%2F%2Ftracker.openbittorrent.com%3A80&amp;tr=udp%3A%2F%2Fopen.demonii.com%3A1337&amp;tr=udp%3A%2F%2Ftracker.coppersurfer.tk%3A6969&amp;tr=udp%3A%2F%2Fexodus.desync.com%3A6969","seeders":0,"leechers":0,"uploader":"TvTeam","files":4,"time":1438695514,"description":"------------------------------------------------------------------------\n\n &lt;a href=&quot; https://www.torrenting.com&quot; rel=&quot;nofollow&quot; target=&quot;_NEW&quot;&gt; https://www.torrenting.com&lt;/a&gt;\n\nSign up is OPEN - for time being. Come and have fun\n\n.......................................................................................................................[center][img]http://s30.postimg.org/nesv5xd0x/Untitled_1.jpg[/img]\n\nMontauk.Chronicles.2015.BRRip.x264-MenaceIISociety &lt;a href=&quot;\nhttp://www.imdb.com/title/tt1661066/&quot; rel=&quot;nofollow&quot; target=&quot;_NEW&quot;&gt;\nhttp://www.imdb.com/title/tt1661066/&lt;/a&gt;\n\nSource: 720p.BluRay.x264-SADPANDA [THANKS]\n\nNOTE: increased some gamma_y, gamma_u and some coef and gain settings :) \n\nGeneral\nComplete name                            : Montauk.Chronicles.2015.BRRip.x264-MenaceIISociety.mp4\nFormat                                   : MPEG-4\nFormat profile                           : Base Media\nCodec ID                                 : isom\nFile size                                : 1.12 GiB\nDuration                                 : 2h 4mn\nOverall bit rate mode                    : Variable\nOverall bit rate                         : 1 288 Kbps\nEncoded date                             : UTC 2015-08-03 00:33:40\nTagged date                              : UTC 2015-08-03 00:33:40\n\nVideo\nID                                       : 1\nFormat                                   : AVC\nFormat/Info                              : Advanced Video Codec\nFormat profile                           : &lt;a class=&quot;__cf_email__&quot; href=&quot;/cdn-cgi/l/email-protection&quot; data-cfemail=&quot;cc84a5aba48c80f8e2fd&quot;&gt;[email&amp;#160;protected]&lt;/a&gt;&lt;script data-cfhash='f9e31' type=&quot;text/javascript&quot;&gt;\n/* &lt;![CDATA[ */!function(){try{var t=&quot;currentScript&quot;in document?document.currentScript:function(){for(var t=document.getElementsByTagName(&quot;script&quot;),e=t.length;e--;)if(t[e].getAttribute(&quot;data-cfhash&quot;))return t[e]}();if(t&amp;&amp;t.previousSibling){var e,r,n,i,c=t.previousSibling,a=c.getAttribute(&quot;data-cfemail&quot;);if(a){for(e=&quot;&quot;,r=parseInt(a.substr(0,2),16),n=2;a.length-n;n+=2)i=parseInt(a.substr(n,2),16)^r,e+=String.fromCharCode(i);e=document.createTextNode(e),c.parentNode.replaceChild(e,c)}t.parentNode.removeChild(t);}}catch(u){}}()/* ]]&gt; */&lt;/script&gt;\nFormat settings, CABAC                   : Yes\nFormat settings, ReFrames                : 3 frames\nCodec ID                                 : avc1\nCodec ID/Info                            : Advanced Video Coding\nDuration                                 : 2h 4mn\nBit rate mode                            : Variable\nBit rate                                 : 1 131 Kbps\nMaximum bit rate                         : 40.0 Mbps\nWidth                                    : 720 pixels\nHeight                                   : 400 pixels\nDisplay aspect ratio                     : 16:9\nFrame rate mode                          : Constant\nFrame rate                               : 23.976 fps\nColor space                              : YUV\nChroma subsampling                       : 4:2:0\nBit depth                                : 8 bits\nScan type                                : Progressive\nBits/(Pixel*Frame)                       : 0.164\nStream size                              : 1 010 MiB (88%)\nWriting library                          : x264 core 148 r2579 73ae2d1\n\nAudio\nID                                       : 2\nFormat                                   : AAC\nFormat/Info                              : Advanced Audio Codec\nFormat profile                           : LC\nCodec ID                                 : 40\nDuration                                 : 2h 4mn\nBit rate mode                            : Variable\nBit rate                                 : 153 Kbps\nMaximum bit rate                         : 197 Kbps\nChannel(s)                               : 6 channels\nChannel positions                        : Front: L C R, Side: L R, LFE\nSampling rate                            : 48.0 KHz\nCompression mode                         : Lossy\nStream size                              : 137 MiB (12%)\nLanguage                                 : English\nEncoded date                             : UTC 2015-08-02 23:10:27\nTagged date                              : UTC 2015-08-03 00:34:25\n\n[img]http://s7.postimg.org/d1qk7gg6z/vlcsnap_2015_08_03_02h36m56s176.jpg[/img]\n[img]http://s7.postimg.org/6a054lr7f/vlcsnap_2015_08_03_02h37m47s886.jpg[/img]\n[img]http://s7.postimg.org/62h3lu5mj/vlcsnap_2015_08_03_02h38m55s071.jpg[/img]\n[img]http://s7.postimg.org/wc264mrjv/vlcsnap_2015_08_03_02h39m24s968.jpg[/img]\n[img]http://s7.postimg.org/8tvryperf/vlcsnap_2015_08_03_02h39m44s676.jpg[/img]\n[img]http://s7.postimg.org/gt4q7ij97/vlcsnap_2015_08_03_02h41m59s477.jpg[/img]\n[img]http://s7.postimg.org/lqiasml8b/vlcsnap_2015_08_03_02h43m12s044.jpg[/img]\n[img]http://s7.postimg.org/azuo6y7ln/vlcsnap_2015_08_03_02h46m49s959.jpg[/img]\n \n[img]http://s17.postimg.org/r1iiyw8yn/Untitled_1.png[/img][/center]","torrent":{"xt":"urn:btih:d6a3cfce7148a0820fbf9ba81305e9be3073b6ba","amp;dn":"Montauk.Chronicles.2015.BRRip.x264-MenaceIISociety","amp;tr":["udp%3A%2F%2Ftracker.openbittorrent.com%3A80","udp%3A%2F%2Fopen.demonii.com%3A1337","udp%3A%2F%2Ftracker.coppersurfer.tk%3A6969","udp%3A%2F%2Fexodus.desync.com%3A6969"],"infoHash":"d6a3cfce7148a0820fbf9ba81305e9be3073b6ba","infoHashBuffer":{"type":"Buffer","data":[214,163,207,206,113,72,160,130,15,191,155,168,19,5,233,190,48,115,182,186]},"announce":[],"urlList":[]}}